<?xml version="1.0" encoding="utf-8"?>
<!-- Generator: Adobe Illustrator 26.5.0, SVG Export Plug-In . SVG Version: 6.00 Build 0)  -->
<svg version="1.1" id="Camada_1" xmlns="http://www.w3.org/2000/svg" xmlns:xlink="http://www.w3.org/1999/xlink" x="0px" y="0px"
	 viewBox="0 0 512 512" style="enable-background:new 0 0 512 512;" xml:space="preserve">
<style type="text/css">
	.st0{fill:#C1AD85;}
</style>
<path class="st0" d="M253.14,494.9c-5-4.83-9.83-9.86-15.04-14.44c-4.44-3.9-6.77-8.41-6-14.32c0.45-3.44-0.81-4.78-4.42-5.27
	c-27.3-3.77-52.82-12.74-75.98-27.72c-39.89-25.8-66.39-61.16-75.97-108.31c-0.33-1.64-0.81-3.26-1.32-5.24
	c-5.55,0-10.97-0.05-16.39,0.02c-3.75,0.05-6.71-1.19-8.34-4.74c-1.57-3.41-0.48-6.35,1.76-9.04
	c12.74-15.29,25.42-30.63,38.25-45.85c4.35-5.16,9.58-5.25,13.9-0.15c12.95,15.31,25.86,30.67,38.4,46.32
	c1.68,2.09,2.05,6.16,1.42,8.95c-0.78,3.44-4.27,4.57-7.85,4.5c-3.56-0.07-7.13-0.02-11.49-0.02c4.43,18.96,13.37,34.95,25.67,49.18
	c22.93,26.53,56.66,41.13,81.91,44.05c0-68.03,0-136.01,0-204.56c-1.7,0-3.36,0-5.02,0c-20.84,0-41.68,0.01-62.52,0
	c-9.13-0.01-11.69-2.55-11.7-11.62c-0.01-8.09-0.01-16.17,0-24.26c0.01-9.61,2.27-11.94,11.73-11.94
	c20.68-0.02,41.37-0.01,62.05-0.01c1.69,0,3.37,0,5.81,0c0-6.68,0.17-12.99-0.17-19.26c-0.06-1.08-2.17-2.32-3.57-3
	c-32.73-16.03-45.6-56.5-27.99-88.2c14.71-26.48,46.71-39.16,75.23-29.82c29.04,9.51,47.85,38.53,43.6,68.57
	c-3.17,22.39-15.1,39.13-35.5,49.33c-2.84,1.42-3.86,2.88-3.72,5.95c0.24,5.26,0.07,10.53,0.07,16.44c2.23,0,4.04,0,5.86,0
	c20.84,0,41.68-0.02,62.52,0.01c8.69,0.01,11.17,2.49,11.18,11.04c0.02,8.71,0.03,17.42,0,26.13c-0.03,7.82-2.83,10.63-10.74,10.65
	c-21,0.03-41.99,0.01-62.99,0.01c-1.69,0-3.39,0-5.46,0c0,68.29,0,136.28,0,204.28c40.62,1.95,104.32-53.07,107.07-92.95
	c-3.7,0-7.37-0.05-11.04,0.01c-3.58,0.06-7.06-1.09-7.81-4.55c-0.61-2.8-0.21-6.85,1.48-8.96c12.45-15.53,25.27-30.75,38.11-45.96
	c4.65-5.5,9.84-5.35,14.53,0.25c12.49,14.89,24.9,29.85,37.35,44.78c2.41,2.89,4.08,5.92,2.26,9.78c-1.89,4.01-5.33,4.76-9.32,4.68
	c-5.1-0.11-10.2-0.03-14.8-0.03c-19.82,84.28-75.71,127.56-157.84,142.64c0.17-0.27-0.17,0.02-0.13,0.24
	c1.57,9.88-3.74,16.4-10.65,22.28c-3.76,3.19-7.21,6.75-10.79,10.14C256.87,494.9,255,494.9,253.14,494.9z M256.2,57.01
	c-13.18-0.11-23.74,10.22-23.97,23.45c-0.24,13.17,10.67,24.25,23.82,24.21c12.95-0.04,23.78-10.86,23.84-23.82
	C279.94,67.84,269.28,57.11,256.2,57.01z"/>
</svg>
