<?xml version="1.0" encoding="utf-8"?>
<!-- Generator: Adobe Illustrator 26.5.0, SVG Export Plug-In . SVG Version: 6.00 Build 0)  -->
<svg version="1.1" id="Camada_1" xmlns="http://www.w3.org/2000/svg" xmlns:xlink="http://www.w3.org/1999/xlink" x="0px" y="0px"
	 viewBox="0 0 393.9 257.5" style="enable-background:new 0 0 393.9 257.5;" xml:space="preserve">
<style type="text/css">
	.st0{fill:#C1AD85;}
	.st1{clip-path:url(#SVGID_00000090289580212182491890000014809878566704693634_);fill:#143B62;}
	.st2{fill:#FFFCF8;}
	.st3{font-family:'MontserratAlternates-SemiBold';}
	.st4{font-size:12px;}
	.st5{font-size:8.1756px;}
</style>
<g>
	<g>
		<rect id="XMLID_00000018224631819051697430000014688972703002032256_" y="0" class="st0" width="393.9" height="257.5"/>
	</g>
	<g>
		<defs>
			<rect id="SVGID_1_" y="0" width="393.9" height="257.5"/>
		</defs>
		<clipPath id="SVGID_00000122703619308288270460000008948454786724044687_">
			<use xlink:href="#SVGID_1_"  style="overflow:visible;"/>
		</clipPath>
		<path style="clip-path:url(#SVGID_00000122703619308288270460000008948454786724044687_);fill:#143B62;" d="M362.6-4.6
			c0,0-3.2,7.5-6.5,11.9c-3.2,4.4-3.1,4-6.2,9.3c-3.1,5.4-2.5,9.5-3.2,21.5c-0.7,12,4.2,12,4.2,12s-14,11.4-18.2,13.3
			c-4.2,1.8-14.1,0-22.2,5.1s-9.9,24.4-10.6,29.2c-0.7,4.8-4.2,3.1-6.2,2.3c-2-0.8-9-0.6-9-0.6s-1.1-2-2-3.2
			c-0.9-1.3-11.6-1-14.3,0.3c-2.7,1.3-4.8,1.6-7.8,2c-3,0.4-3.5,1.4,4.7,2.3c8.2,0.8,16,0.3,16,0.3v1.7c0,0-6.6,0.3-9.5,0.3
			c-2.8,0-30.9-1.8-30.9-1.8s-3-1-3-1.8c0-0.8,3.1-1.8,4.2-3.1c1.1-1.3,0.3-6.2-1.3-8.2s-2.1,0.3-4.9,1.8c-2.8,1.6-4,5.2-4.5,8.5
			c-0.6,3.2-0.4,1.4-2.3,3.8c-1.8,2.4-4.5,0.6-7.1-0.6s-15.7-0.1-16.1-0.4c-0.3-2.3-2-2.5-2.8-3.4c-0.8-0.8-9.3,0-11.9,0.9
			c-2.6,0.9-3.5,2.6-5.5,5c-2,2.4-8.3,3.5-8.3,3.2c6.5-4.5,2.3-6.6,0-7.8s-8.6,0-8.6,0s0.1,1.3-3.4,4.2c-3.5,3-4.9,8.2-4.9,9.6
			c0,1.4,2.8-0.6,3.9,0c1.1,0.6-1.8,1.6-2.3,2.4c-0.4,0.8,1.7,1.3,3.8,1.6c2.1,0.3,3.1-1.3,5.4-1.6c2.3-0.3,4.2,3.1,4.2,3.1
			s-3.8,0.6-5.4,0.8s-0.7,4.5-0.7,4.5s-14.7,1.3-17.1,0.8c-2.4-0.4-2-3.7-3.2-5.4c0,0-3.9,4.9-7.9,7.2c-3.9,2.3-5.1,6.1-6.5,7.9
			c-1.4,1.8-3.8,0.9-6.1,0.9c-2.2,0-6.5,5.8-3,7.5c3.5,1.7-0.4,4.5-1.6,4.9c-1.1,0.4-1.6,1.7-2,2.8c-0.4,1.1-2.5,0.4-2.5,0.4
			s-6.3-4.5-11.7-6.1c-5.4-1.6-13.3,1.1-16.4,2.2c-3.1,1.1-7.8,6.8-8.6,11.3c-0.8,4.5-2.7,2.8-3.5,2.1C62,149,36.7,188,31.5,191.5
			c-5.2,3.5-10.4,4-10.4,4v3.4c0,0-10.4,7.1-13,8.5c-5.5,1.3-9.7,6.1-9.7,6.1l-5.2,51.2l404.7,3.4V-6.5L362.6-4.6z M132.7,156.6
			c-2.7-0.6-2-0.6-3.9-0.3c-2,0.3-3.6,1.6-3.6,1.6s-2.4-1.1-2.8-2.1c-0.4-1.1,4.5-6.7,6.8-8.7c2.3-2,1.1-4.1,1.1-4.1s2.4,0.1,4.7,0
			s1.8,3.7,1.8,5.7s-4.5,1.4-5.3,1.8c-0.8,0.3,2.3,3.1,5.5,4.7C140.4,156.8,135.4,157.2,132.7,156.6z M187,112.9
			c-2.6,0.1-4.1,1-7.2,1.1c-3,0.1-2.4-0.1-2.3-1c0.1-0.9,4.5-4.9,4.5-4.9s5.5,1.8,8,2.3C192.6,110.8,189.6,112.8,187,112.9z
			 M192.1,105.7c0,0-2.7,1.1-3.5,0c-0.8-1.1,0.8-1,0.8-1l12.8-4.7l1,1.9L192.1,105.7z"/>
	</g>
</g>
<text transform="matrix(1 0 0 1 140.3202 46.0996)" class="st2 st3 st4">BRASIL</text>
<text transform="matrix(1 0 0 1 17.9599 153.4532)" class="st2 st3 st4">SANTOS</text>
<text transform="matrix(1 0 0 1 312.9412 83.9945)" class="st2 st3 st4">BÚZIOS</text>
<text transform="matrix(1 0 0 1 233.3268 212.4891)" class="st2 st3 st5">ATLANTIC OCEAN</text>
<g>
	<g>
		<path class="st2" d="M308.3,89.9l-1,0.2c0.1,0.4,9,43.8-21.7,72.3c-5.5,5.1-12,9.4-19.3,13l-0.4-4l-6.5,7
			c-12.1,4.7-26.2,7.6-42.3,8.7c-36.7,2.4-84.1-4.9-140.8-21.6l-0.3,1c49.8,14.6,92.4,22,127,22c4.9,0,9.6-0.1,14.2-0.4
			c16.4-1.1,30.7-4,42.9-8.9l9.3-0.2l-2.6-2.8c7.4-3.6,13.9-8,19.5-13.1C317.4,134.3,308.4,90.4,308.3,89.9z"/>
		<path class="st2" d="M152.3,178.9l10.1-3.1c7.9,0.6,16.3,0.9,24.9,0.9c33.7,0,70.2-5.4,93.8-24.5c16.8-13.6,25.5-33,25.9-57.6
			l-1,0c-0.4,24.2-9,43.3-25.5,56.7c-29.7,24.1-80.5,26.1-119.7,23.2l-7.4-4.6l0.8,4.1c-42.3-3.9-77.5-13.4-77.9-13.5l-0.2,1
			c0.4,0.1,35.6,9.7,78,13.5L152.3,178.9z"/>
	</g>
</g>
<circle class="st2" cx="76.9" cy="162.2" r="4.3"/>
<circle class="st2" cx="305.2" cy="91.3" r="4.3"/>
</svg>
