<?xml version="1.0" encoding="utf-8"?>
<!-- Generator: Adobe Illustrator 27.0.1, SVG Export Plug-In . SVG Version: 6.00 Build 0)  -->
<svg version="1.1" id="Layer_1" xmlns="http://www.w3.org/2000/svg" xmlns:xlink="http://www.w3.org/1999/xlink" x="0px" y="0px"
	 viewBox="0 0 1080 1080" style="enable-background:new 0 0 1080 1080;" xml:space="preserve">
<style type="text/css">
	.st0{fill-rule:evenodd;clip-rule:evenodd;fill:#2AD342;}
	.st1{fill-rule:evenodd;clip-rule:evenodd;fill:#FFFFFF;}
</style>
<circle class="st0" cx="540" cy="540" r="493.34"/>
<g>
	<g>
		<path class="st1" d="M544.44,293.06c-132.86,0-240.57,107.71-240.57,240.58c0,45.45,12.61,87.96,34.52,124.23l-43.42,129.07
			l133.19-42.64c34.47,19.05,74.1,29.92,116.28,29.92c132.88,0,240.58-107.72,240.58-240.58
			C785.03,400.77,677.32,293.06,544.44,293.06z M544.44,733.91c-40.67,0-78.55-12.2-110.18-33.11l-76.96,24.64l25.02-74.37
			c-23.97-33.02-38.14-73.59-38.14-117.43c0-110.44,89.84-200.28,200.27-200.28c110.44,0,200.28,89.85,200.28,200.28
			C744.72,644.07,654.89,733.91,544.44,733.91z M657.25,588.3c-6.03-3.3-35.65-19.29-41.21-21.55c-5.55-2.25-9.61-3.43-13.94,2.57
			c-4.33,5.98-16.62,19.37-20.34,23.34c-3.74,3.97-7.34,4.34-13.37,1.03c-6.02-3.29-25.57-10.52-48.24-32.32
			c-17.64-16.96-29.21-37.53-32.57-43.8c-3.36-6.28-0.02-9.49,3.17-12.43c2.86-2.65,6.41-6.95,9.62-10.42
			c3.2-3.47,4.32-5.99,6.52-10.01c2.2-4.02,1.31-7.65-0.11-10.78c-1.42-3.12-12.57-33.81-17.23-46.29
			c-4.66-12.48-9.84-10.63-13.43-10.77c-3.58-0.12-7.66-0.8-11.75-0.95c-4.09-0.16-10.81,1.13-16.66,7.07
			c-5.86,5.93-22.28,20.19-23.41,50.42c-1.13,30.21,19.78,60.23,22.69,64.44c2.92,4.22,39.92,69.71,101.42,96.65
			c61.51,26.93,61.83,18.72,73.12,18.11c11.29-0.6,36.89-13.5,42.55-27.64c5.66-14.14,6.11-26.44,4.67-29.06
			C667.3,593.3,663.27,591.6,657.25,588.3z"/>
	</g>
</g>
</svg>
